<svg id="Layer_1" data-name="Layer 1" xmlns="http://www.w3.org/2000/svg" viewBox="0 0 1960.24 1495.83"><path d="M950.39,42.6c359.53,0,659.06,261.81,717.92,604.76,5.75.47,11.53.87,17.28,1.21-25.06-152.49-96.86-293-208.32-404.44C1336.55,103.41,1149.45,25.9,950.39,25.9S564.27,103.41,423.54,244.13c-98,98-165.35,218.47-197.22,349.81q9.31-3,18.84-5.54C326.42,274.84,611.81,42.6,950.39,42.6Zm706.7,905.33c-79.22,316.46-366,551.5-706.7,551.5-341.35,0-628.65-236-707.17-553.48q-8.31,1.51-16.63,3.11c31.94,131,99.19,251.08,197,348.84,140.73,140.73,327.82,218.24,526.85,218.24s386.16-77.51,526.88-218.24c97.66-97.62,164.85-217.6,196.86-348.37-2.57-.17-5.11-.4-7.65-.64C1663.34,948.59,1660.2,948.26,1657.09,947.93Z" transform="translate(-16.88 -20.31)"/><path d="M1030.83,37c359.53,0,659.06,261.81,717.93,604.77,5.74.46,11.52.86,17.27,1.2-25.06-152.49-96.86-293-208.31-404.43C1417,97.82,1229.89,20.31,1030.83,20.31S644.71,97.82,504,238.55c-98,98-165.35,218.47-197.22,349.8q9.33-3,18.84-5.54C406.86,269.25,692.25,37,1030.83,37Zm706.7,905.33c-79.21,316.46-366,551.5-706.7,551.5-341.35,0-628.65-236-707.16-553.47q-8.32,1.5-16.64,3.1c31.94,131,99.19,251.08,197,348.84,140.73,140.73,327.83,218.24,526.85,218.24S1417,1433,1557.72,1292.31c97.66-97.62,164.84-217.6,196.85-348.37-2.57-.17-5.11-.4-7.65-.63C1743.78,943,1740.64,942.67,1737.53,942.34Z" transform="translate(-16.88 -20.31)"/><path d="M585.1,988.32a18.85,18.85,0,0,1-7.59-8.24,31.72,31.72,0,0,1,0-25.34,18.9,18.9,0,0,1,7.59-8.24,22.67,22.67,0,0,1,11.61-2.87A25,25,0,0,1,605,945a20.2,20.2,0,0,1,6.8,3.92,3.22,3.22,0,0,1,1.25,2.64,3.14,3.14,0,0,1-.66,2,2,2,0,0,1-1.58.82,3.43,3.43,0,0,1-2.18-.86,23.49,23.49,0,0,0-5.78-3.33,17,17,0,0,0-5.9-1q-7.26,0-11.15,4.68t-3.89,13.46q0,8.83,3.89,13.53t11.15,4.68a16.1,16.1,0,0,0,5.77-1,27.94,27.94,0,0,0,5.91-3.3,4.33,4.33,0,0,1,2.18-.86,2,2,0,0,1,1.58.83,3.12,3.12,0,0,1,.66,2,3.21,3.21,0,0,1-1.25,2.64,20.2,20.2,0,0,1-6.8,3.92,25,25,0,0,1-8.25,1.36A22.67,22.67,0,0,1,585.1,988.32Z" transform="translate(-16.88 -20.31)"/><path d="M648.67,988.29a19.33,19.33,0,0,1-7.49-8.24,28.2,28.2,0,0,1-2.64-12.61,28.82,28.82,0,0,1,2.61-12.7,18.78,18.78,0,0,1,7.48-8.24,24.54,24.54,0,0,1,23,0,18.8,18.8,0,0,1,7.49,8.24,31.89,31.89,0,0,1,0,25.27,19,19,0,0,1-7.49,8.28,22.11,22.11,0,0,1-11.54,2.91A21.83,21.83,0,0,1,648.67,988.29ZM671,980.91q3.9-4.75,3.9-13.53T671,953.88q-3.87-4.71-10.92-4.71t-10.79,4.71q-3.86,4.73-3.86,13.5t3.86,13.53q3.85,4.74,10.79,4.74T671,980.91Z" transform="translate(-16.88 -20.31)"/><path d="M715.27,986.38q-4.82-4.82-4.81-14.19V947.25a3.35,3.35,0,0,1,.92-2.5,3.67,3.67,0,0,1,4.88,0,3.36,3.36,0,0,1,.93,2.5v25.41q0,6.39,3.07,9.7t9.13,3.29q6,0,9.11-3.29t3.1-9.7V947.25a3.39,3.39,0,0,1,.92-2.47,3.24,3.24,0,0,1,2.44-1,3.32,3.32,0,0,1,2.45.93,3.39,3.39,0,0,1,.92,2.5v24.94q0,9.31-4.85,14.16t-14.09,4.85Q720.09,991.2,715.27,986.38Z" transform="translate(-16.88 -20.31)"/><path d="M815.92,944.78a3.46,3.46,0,0,1,.9,2.47v40.32a3.4,3.4,0,0,1-.93,2.47,3.16,3.16,0,0,1-2.37,1,3,3,0,0,1-2.64-1.32L785,955.57v32a3.5,3.5,0,0,1-.89,2.47,3,3,0,0,1-2.34,1,3,3,0,0,1-2.31-.93,3.53,3.53,0,0,1-.86-2.5V947.25a3.4,3.4,0,0,1,.93-2.47,3.13,3.13,0,0,1,2.37-1,3,3,0,0,1,2.64,1.32l25.86,34.18V947.25a3.57,3.57,0,0,1,.86-2.47,2.94,2.94,0,0,1,2.31-1A3,3,0,0,1,815.92,944.78Z" transform="translate(-16.88 -20.31)"/><path d="M853.27,989.81A18.88,18.88,0,0,1,846,986a3.41,3.41,0,0,1-1.25-2.71,3.12,3.12,0,0,1,.66-2,2,2,0,0,1,1.58-.83,4.43,4.43,0,0,1,2.25.86,21.89,21.89,0,0,0,13.39,4.35c3.52,0,6.22-.66,8.12-2a6.53,6.53,0,0,0,2.83-5.68,4.7,4.7,0,0,0-2.64-4.36,35.43,35.43,0,0,0-8.44-2.77,51,51,0,0,1-9.11-2.7,13.63,13.63,0,0,1-5.57-4.12,10.5,10.5,0,0,1-2-6.64,12.1,12.1,0,0,1,2.21-7.15,14.59,14.59,0,0,1,6.17-4.89,22.29,22.29,0,0,1,9-1.74A27.13,27.13,0,0,1,871.9,945a18.1,18.1,0,0,1,6.74,3.89,3.45,3.45,0,0,1,1.31,2.7,3.06,3.06,0,0,1-.69,2,2,2,0,0,1-1.61.86,4.33,4.33,0,0,1-2.18-.86,23.6,23.6,0,0,0-5.71-3.33,18.07,18.07,0,0,0-6.43-1q-5.08,0-7.92,2.08a6.75,6.75,0,0,0-2.84,5.77,5.33,5.33,0,0,0,2.51,4.78,27.26,27.26,0,0,0,8,2.94,66.11,66.11,0,0,1,9.4,2.74,14.34,14.34,0,0,1,5.74,3.89,9.37,9.37,0,0,1,2.15,6.37,11.71,11.71,0,0,1-2.21,7,14.37,14.37,0,0,1-6.2,4.76,23.79,23.79,0,0,1-9.21,1.68A32.45,32.45,0,0,1,853.27,989.81Z" transform="translate(-16.88 -20.31)"/><path d="M909.48,989.78a3.25,3.25,0,0,1-.89-2.41V947.45a3.25,3.25,0,0,1,.89-2.41,3.35,3.35,0,0,1,2.47-.88h24.28a3.45,3.45,0,0,1,2.34.72,2.57,2.57,0,0,1,.83,2,2.49,2.49,0,0,1-.83,2,3.55,3.55,0,0,1-2.34.69h-21v14.65h19.67a3.45,3.45,0,0,1,2.34.72,2.63,2.63,0,0,1,.82,2,2.59,2.59,0,0,1-.82,2,3.4,3.4,0,0,1-2.34.73H915.25v15.37h21c2.11,0,3.17.9,3.17,2.71a2.57,2.57,0,0,1-.83,2,3.4,3.4,0,0,1-2.34.73H912A3.35,3.35,0,0,1,909.48,989.78Z" transform="translate(-16.88 -20.31)"/><path d="M967.87,989.81a3.07,3.07,0,0,1-.89-2.31V947.25a3.43,3.43,0,0,1,.92-2.47,3.24,3.24,0,0,1,2.44-1,3.19,3.19,0,0,1,3.43,3.43V985h20.06a3.45,3.45,0,0,1,2.34.73,2.68,2.68,0,0,1,.83,2.11,2.65,2.65,0,0,1-.83,2.11,3.4,3.4,0,0,1-2.34.73H970.28A3.32,3.32,0,0,1,967.87,989.81Z" transform="translate(-16.88 -20.31)"/><path d="M1023.79,990.07a3.36,3.36,0,0,1-.93-2.5V947.25a3.4,3.4,0,0,1,.93-2.47,3.21,3.21,0,0,1,2.44-1,3.2,3.2,0,0,1,3.43,3.43v40.32a3.46,3.46,0,0,1-.89,2.5,3.38,3.38,0,0,1-2.54.93A3.26,3.26,0,0,1,1023.79,990.07Z" transform="translate(-16.88 -20.31)"/><path d="M1097.58,944.78a3.45,3.45,0,0,1,.89,2.47v40.32a3.43,3.43,0,0,1-.92,2.47,3.16,3.16,0,0,1-2.38,1,3,3,0,0,1-2.63-1.32l-25.87-34.11v32a3.5,3.5,0,0,1-.89,2.47,3,3,0,0,1-2.34,1,3,3,0,0,1-2.31-.93,3.53,3.53,0,0,1-.86-2.5V947.25a3.43,3.43,0,0,1,.92-2.47,3.16,3.16,0,0,1,2.38-1,3,3,0,0,1,2.64,1.32l25.86,34.18V947.25a3.57,3.57,0,0,1,.86-2.47,2.94,2.94,0,0,1,2.31-1A3,3,0,0,1,1097.58,944.78Z" transform="translate(-16.88 -20.31)"/><path d="M1166.07,966.72a2.62,2.62,0,0,1,.76,2v15.44a6.26,6.26,0,0,1-.63,3.23,4.36,4.36,0,0,1-2.47,1.58,29.32,29.32,0,0,1-6.27,1.65,44.06,44.06,0,0,1-7.19.6,24.93,24.93,0,0,1-12.21-2.84,18.81,18.81,0,0,1-7.85-8.18,28,28,0,0,1-2.71-12.8,27.63,27.63,0,0,1,2.71-12.67,19.17,19.17,0,0,1,7.75-8.21,23.5,23.5,0,0,1,11.85-2.87,26.14,26.14,0,0,1,8.54,1.35,18.53,18.53,0,0,1,6.69,3.92,3.27,3.27,0,0,1,1.32,2.64,3.2,3.2,0,0,1-.65,2,2,2,0,0,1-1.59.82,2.57,2.57,0,0,1-1.06-.2,8.65,8.65,0,0,1-1.18-.66,24.59,24.59,0,0,0-5.87-3.33,17.74,17.74,0,0,0-6.07-1c-5,0-8.84,1.54-11.49,4.64s-4,7.6-4,13.5,1.35,10.59,4.06,13.69,6.67,4.65,11.9,4.65a33,33,0,0,0,10.17-1.58v-13H1152a3,3,0,0,1-2.08-.69,2.45,2.45,0,0,1-.76-1.89,2.42,2.42,0,0,1,.76-1.87,2.94,2.94,0,0,1,2.08-.7h12.07A2.83,2.83,0,0,1,1166.07,966.72Z" transform="translate(-16.88 -20.31)"/><path d="M1235,989.81a3.07,3.07,0,0,1-.89-2.31V947.25a3.4,3.4,0,0,1,.93-2.47,3.22,3.22,0,0,1,2.44-1,3.19,3.19,0,0,1,3.43,3.43V985H1261a3.45,3.45,0,0,1,2.34.73,2.67,2.67,0,0,1,.82,2.11,2.64,2.64,0,0,1-.82,2.11,3.4,3.4,0,0,1-2.34.73h-23.56A3.35,3.35,0,0,1,1235,989.81Z" transform="translate(-16.88 -20.31)"/><path d="M1290.9,989.81a3,3,0,0,1-.89-2.31V947.25a3.39,3.39,0,0,1,.92-2.47,3.22,3.22,0,0,1,2.44-1,3.19,3.19,0,0,1,3.43,3.43V985h20.06a3.45,3.45,0,0,1,2.34.73,2.68,2.68,0,0,1,.83,2.11,2.65,2.65,0,0,1-.83,2.11,3.4,3.4,0,0,1-2.34.73H1293.3A3.31,3.31,0,0,1,1290.9,989.81Z" transform="translate(-16.88 -20.31)"/><path d="M1352.09,988.32a18.85,18.85,0,0,1-7.59-8.24,31.83,31.83,0,0,1,0-25.34,18.9,18.9,0,0,1,7.59-8.24,22.67,22.67,0,0,1,11.61-2.87A25,25,0,0,1,1372,945a20.1,20.1,0,0,1,6.8,3.92,3.22,3.22,0,0,1,1.25,2.64,3.14,3.14,0,0,1-.66,2,2,2,0,0,1-1.58.82,3.43,3.43,0,0,1-2.18-.86,23.45,23.45,0,0,0-5.77-3.33,17,17,0,0,0-5.91-1q-7.26,0-11.15,4.68t-3.89,13.46q0,8.83,3.89,13.53t11.15,4.68a16.1,16.1,0,0,0,5.77-1,27.94,27.94,0,0,0,5.91-3.3,4.33,4.33,0,0,1,2.18-.86,2,2,0,0,1,1.58.83,3.12,3.12,0,0,1,.66,2,3.21,3.21,0,0,1-1.25,2.64,20.1,20.1,0,0,1-6.8,3.92,25,25,0,0,1-8.25,1.36A22.67,22.67,0,0,1,1352.09,988.32Z" transform="translate(-16.88 -20.31)"/><path d="M1334.53,297c-.38.28-39.25,27.74-78.56,41.92-39.56,14.27-72,76.46-77.16,86.76-34.88,18.87-73.55,33.59-115.13,43.83l-.29-.13-.11.24a568.27,568.27,0,0,1-63.41,11.72,240.92,240.92,0,0,0,34.83-29.64c43.33-22,65.94-58.55,69-63.79,23.87-24.25,20.83-88.8,19.88-102.51a6,6,0,0,0-4.59-7.29l-7-1.26.6,6.94c-1.83,3-10.33,13.73-49.39,47.46-52.79,45.59-41.6,99.81-37.44,114.1-24.76,25.05-46.63,36.43-51.36,38.73a730.92,730.92,0,0,1-87.64,2.05c20.4-12,55-37.23,69.85-76.41a15.78,15.78,0,1,0-10.29-3.29c-9,23.17-25.76,41.2-41.64,54.07-3.49-11.75-8-38.11,8.39-67.35a15.39,15.39,0,0,0,4.52.74,15.71,15.71,0,1,0-15.71-15.71,15.55,15.55,0,0,0,2.51,8.44c-21.44,37.06-13,69.51-8.83,80.83a181.37,181.37,0,0,1-28.89,17.09l-1.35.6c-51.29-3-101.75-10.34-149.73-19.36,5.42-5.6,15-14.39,30-25.11,4.6-2,30.61-12.57,65.65-15.73,42.4-3.82,78.47-73.39,80-76.35l7.59-14.85L884,341.31c-.17.08-17.55,8.56-75.67,18.57-56.7,9.78-68.69,61.12-70.73,73.13-20,14.39-30.3,25.43-34.45,30.38-21.15-4.13-41.79-8.54-61.74-13l-2.13-.47L637,460.45l2.13.47c34.47,7.71,71.71,15.47,110.69,21.85a247.39,247.39,0,0,0,50.59,49.68c1,4.6,6,13.15,19.58,32.28,12.55,17.73,39.85,26.72,81.14,26.72A333,333,0,0,0,954.15,587l13-2.34-10.86-7.43c-1.63-1.12-40.19-27.58-57-41.28-17.23-14-76.15-11.19-90-10.31a243.37,243.37,0,0,1-43.64-40.33c47.73,7.24,97.85,12.18,148.66,12.18,3.17,0,6.3-.08,9.45-.12,5,6.72,21.18,25.09,55.42,37.11,3.4,3.25,13.92,11.5,40.58,20.94,7.23,2.57,16.56,3.87,27.74,3.87,33.36,0,72.5-11.36,74.15-11.84l17.33-5-17.26-5.3c-.36-.11-37.4-11.52-63.56-22-36.62-14.61-67.8,2.64-76.75,8.46-22.46-8.23-36.19-19.22-43.49-26.54,12.8-.4,25.39-1.14,37.69-2.2l.2.44,1.36-.59c3.92-.35,7.85-.67,11.71-1.08a586.5,586.5,0,0,0,73.92-12.73,236.27,236.27,0,0,0,49.68,14.26c3.13,5.72,12,18.42,33.1,27.68a15.45,15.45,0,0,0-.84,4.83,15.71,15.71,0,1,0,15.71-15.72,15.51,15.51,0,0,0-7.76,2.14c-12.75-5.13-20.7-11.69-25.42-16.92,5.92.59,12,1,18.26,1,3.54,0,7-.15,10.39-.37a15.61,15.61,0,1,0-1.64-10.73c-28.69,1.6-56.37-5.39-73-10.87A490.46,490.46,0,0,0,1185,434.61c7.93-.71,45.22-4.93,81.28-23.27,40.47-20.58,75-104.37,76.43-107.94l7-17.16ZM1196.8,415.35c12.33-21,36.56-56.83,62.83-66.3a289.34,289.34,0,0,0,31.88-14C1265.36,366.28,1233.4,393.2,1196.8,415.35Zm103.44-73.88,1.4-1.67-7.36-6.14c12-6.19,22.75-12.52,30.89-17.62-12.11,25.45-37.2,72.15-63.82,85.69-17.83,9.06-36.23,14.47-50.76,17.71C1245,397.54,1275.22,371.46,1300.24,341.47Zm-199-1.77.67-2.07-10.25-3.36-.68,2.07c-14.52,44.33-35.87,76.71-56.41,99.72-4-18.33-6.69-60,35.78-96.65,20-17.23,34.39-30.58,43-39.78.41,22.43-1.19,65-17.93,81.31l-.73,1c-.16.27-12,20.89-35.31,40.44A296.22,296.22,0,0,0,1101.2,339.7ZM951.05,394.06A4.92,4.92,0,1,1,956,399,4.92,4.92,0,0,1,951.05,394.06Zm-33.4-20.82a4.92,4.92,0,1,1-4.92,4.92A4.93,4.93,0,0,1,917.65,373.24ZM819.51,399l2-.91-4.5-9.81-2,.91c-27,12.35-48,24.27-64.3,34.9,5.31-17.8,20-46.72,59.48-53.54,32.21-5.54,52.24-10.6,64.27-14.29-12.19,19.83-37.65,55.57-64.12,58a248.75,248.75,0,0,0-29.87,4.56C791.8,412.37,804.73,405.73,819.51,399ZM898,567l.09-10.78-2.18,0c-23.72-.18-47.49-7.1-70.83-20.52,24.44-.61,57.64.64,67.37,8.58,11.42,9.29,32.35,24.16,46.36,33.94-26.73,3.13-90.8,7.44-110-19.73-3.93-5.55-7-10-9.36-13.62,25,14.47,50.71,21.93,76.41,22.14Zm150.12-21.53,2.18,0,.11-10.79-2.18,0A212.28,212.28,0,0,1,995.67,528c12.63-6,34.39-12.51,58.47-2.9,14.87,5.93,33.3,12.2,46.21,16.44-20.63,4.54-56.93,10.76-77,3.63-1.61-.56-3.08-1.12-4.56-1.68A252.11,252.11,0,0,0,1048.09,545.49Zm107.41-17.85a4.93,4.93,0,1,1,4.92,4.92A4.92,4.92,0,0,1,1155.5,527.64Zm9.19-37.39a4.93,4.93,0,1,1,4.93,4.92A4.93,4.93,0,0,1,1164.69,490.25Zm-49.86-206.57h0l-.64.23-.28-.15Z" transform="translate(-16.88 -20.31)"/><path d="M69.11,871.54q-15.82.19-27.47-5a76.62,76.62,0,0,1-22.26-15.6,7.23,7.23,0,0,1-1.77-2.09,5.62,5.62,0,0,1-.73-2.91,6.45,6.45,0,0,1,2-4.57,6,6,0,0,1,4.47-2.08,6.35,6.35,0,0,1,4.58,2.08,56.16,56.16,0,0,0,18.41,13.31,54,54,0,0,0,22.16,4.58,47.6,47.6,0,0,0,17.79-3.12,29,29,0,0,0,12.38-8.95,21.26,21.26,0,0,0,4.58-13.52q0-9.57-5.2-15.5a39.63,39.63,0,0,0-13.73-9.79,154.49,154.49,0,0,0-18.94-7,152.36,152.36,0,0,1-16.23-5.73,59.88,59.88,0,0,1-13.73-7.91A31.9,31.9,0,0,1,26,776.24q-3.34-6.87-3.33-16.65A33.89,33.89,0,0,1,28.53,740a39.18,39.18,0,0,1,16.55-13.42q10.71-4.87,24.86-4.89a67.87,67.87,0,0,1,23.61,4.17,40.85,40.85,0,0,1,18,12.27c2.08,2.22,3.12,4.24,3.12,6a6,6,0,0,1-2.08,4.16,6.34,6.34,0,0,1-4.58,2.08,4.82,4.82,0,0,1-3.53-1.46,36.66,36.66,0,0,0-9-7.8,45.56,45.56,0,0,0-12-5.31A49.35,49.35,0,0,0,69.94,734a48.54,48.54,0,0,0-17.59,3,28.38,28.38,0,0,0-12.27,8.63,21,21,0,0,0-4.48,13.53q0,8.73,5,14.35a37.92,37.92,0,0,0,13.11,9.26q8.11,3.65,17.27,6.76a179.73,179.73,0,0,1,17.16,5.73,61.12,61.12,0,0,1,14.57,8,33.84,33.84,0,0,1,10,12.07q3.63,7.27,3.64,18.31a32.33,32.33,0,0,1-6,19.14,41.56,41.56,0,0,1-16.54,13.52Q83.26,871.33,69.11,871.54Z" transform="translate(-16.88 -20.31)"/><path d="M171.48,863a6.82,6.82,0,0,1-2.19,4.58,6.33,6.33,0,0,1-4.47,1.87,6.1,6.1,0,0,1-4.68-1.87,6.37,6.37,0,0,1-1.77-4.58V730.25a6.21,6.21,0,0,1,1.87-4.57,6.47,6.47,0,0,1,4.78-1.87,6.34,6.34,0,0,1,4.48,1.87,6.05,6.05,0,0,1,2,4.57Z" transform="translate(-16.88 -20.31)"/><path d="M229.11,723.81a8,8,0,0,1,3,.62,5.82,5.82,0,0,1,2.6,2.08l57.43,86.14-5.62-.21,57.64-85.93a5.77,5.77,0,0,1,5.62-2.7,5.84,5.84,0,0,1,4.26,1.76,6.07,6.07,0,0,1,1.77,4.48V863.21a6,6,0,0,1-1.88,4.37,6.19,6.19,0,0,1-4.57,1.87,6.49,6.49,0,0,1-4.79-1.87,6,6,0,0,1-1.87-4.37V742.74l3.75.42-52.65,79.69a4.61,4.61,0,0,1-1.87,2,4.42,4.42,0,0,1-2.91.52,4.35,4.35,0,0,1-2.81-.52,5.94,5.94,0,0,1-2.19-2L231.2,742.32l4-2.7V863.21a6.17,6.17,0,0,1-1.77,4.37,5.88,5.88,0,0,1-4.47,1.87,5.59,5.59,0,0,1-4.38-1.87,6.38,6.38,0,0,1-1.66-4.37V730.05a6.16,6.16,0,0,1,1.77-4.37A5.87,5.87,0,0,1,229.11,723.81Z" transform="translate(-16.88 -20.31)"/><path d="M463,723.81a39.57,39.57,0,0,1,20.6,5.3,38.38,38.38,0,0,1,14.15,14.67,43.37,43.37,0,0,1,5.2,21.43,45.1,45.1,0,0,1-5.2,21.74,40.22,40.22,0,0,1-14.15,15.3,37.94,37.94,0,0,1-20.6,5.61h-44.1l1-2.08v57.43a6.41,6.41,0,0,1-6.25,6.24,5.81,5.81,0,0,1-4.58-1.87,6.38,6.38,0,0,1-1.66-4.37V730.05a6.39,6.39,0,0,1,6.24-6.24Zm0,72a24.84,24.84,0,0,0,14.16-4.06,27.8,27.8,0,0,0,9.46-11,34.55,34.55,0,0,0,3.43-15.5,32,32,0,0,0-3.43-15.09,25.52,25.52,0,0,0-23.62-14h-44.1l1-1.87v62.84l-1.25-1.25Z" transform="translate(-16.88 -20.31)"/><path d="M624.45,857.18a6.17,6.17,0,0,1,4.37,1.77,5.68,5.68,0,0,1,1.87,4.26,5.89,5.89,0,0,1-1.87,4.47,6.13,6.13,0,0,1-4.37,1.77H550.17a5.89,5.89,0,0,1-4.48-1.87,6.17,6.17,0,0,1-1.77-4.37V730.05a6,6,0,0,1,1.88-4.37,6.47,6.47,0,0,1,4.78-1.87,6.3,6.3,0,0,1,4.47,1.87,5.83,5.83,0,0,1,2,4.37V860.72l-3.95-3.54Z" transform="translate(-16.88 -20.31)"/><path d="M741.39,723a5.74,5.74,0,0,1,4.47,2,6.29,6.29,0,0,1,1.77,4.26,6.41,6.41,0,0,1-.31,2,9.71,9.71,0,0,1-.94,2l-48.9,67.22,2.5-8.12v71a6,6,0,0,1-1.87,4.37,6.23,6.23,0,0,1-4.58,1.87,5.87,5.87,0,0,1-4.47-1.87,6.13,6.13,0,0,1-1.77-4.37V793.72l1,5-47.65-65.13a7.63,7.63,0,0,1-1.25-2.18,6.33,6.33,0,0,1-.42-2.19,5.51,5.51,0,0,1,2.19-4.47,7.05,7.05,0,0,1,4.47-1.77,6.21,6.21,0,0,1,5.21,2.92l44.73,61-3.12-.42L736,725.89A6.35,6.35,0,0,1,741.39,723Z" transform="translate(-16.88 -20.31)"/><path d="M914.08,723.81q17.48,0,27.36,9.46t9.88,26.32a38.37,38.37,0,0,1-3.74,16.65,31.26,31.26,0,0,1-11,12.79q-7.29,4.9-18.1,5.52l-.83-4.17a52.75,52.75,0,0,1,15.08,2.19,37.32,37.32,0,0,1,13.22,7,35.66,35.66,0,0,1,9.36,12q3.54,7.17,3.54,17.37a43.83,43.83,0,0,1-3.64,18.62,33.78,33.78,0,0,1-9.78,12.59,41.24,41.24,0,0,1-14,7.07,58.66,58.66,0,0,1-16.44,2.29h-56a6.39,6.39,0,0,1-6.24-6.24V730.05a6.39,6.39,0,0,1,6.24-6.24Zm-1.67,12.27H863.52l2.5-3.75v58.89l-2.29-3.12h48.68A26.55,26.55,0,0,0,930.62,781q7.38-6.87,7.39-20.4,0-11.45-6.66-18T912.41,736.08Zm1.46,64.5H865l1-1.24v59.71l-1.25-1.87h49.52q13.32,0,22.26-6.76t9-21.54q0-10.39-4.37-16.65a24.11,24.11,0,0,0-11.65-8.94A44.58,44.58,0,0,0,913.87,800.58Z" transform="translate(-16.88 -20.31)"/><path d="M1006.88,723.81h76.36a6.19,6.19,0,0,1,4.37,1.76,5.9,5.9,0,0,1,1.88,4.48,5.54,5.54,0,0,1-1.88,4.36,6.32,6.32,0,0,1-4.37,1.67h-71.57l2.08-3.54V791l-2.29-2.71h62.42a6.41,6.41,0,0,1,6.24,6.25,5.57,5.57,0,0,1-1.87,4.37,6.38,6.38,0,0,1-4.37,1.66h-62l1.87-2.08v59.93l-1-1.25h70.53a6.41,6.41,0,0,1,6.25,6.24,5.56,5.56,0,0,1-1.88,4.37,6.36,6.36,0,0,1-4.37,1.66h-76.36a6.39,6.39,0,0,1-6.24-6.24V730.05a6.39,6.39,0,0,1,6.24-6.24Z" transform="translate(-16.88 -20.31)"/><path d="M1237.63,734.62a6.27,6.27,0,0,1,2.91,4.27,7,7,0,0,1-1.25,5.1,5.17,5.17,0,0,1-3.74,2.08,8,8,0,0,1-4.37-.83,69.86,69.86,0,0,0-17-8.12,63.19,63.19,0,0,0-19.45-2.91,61.73,61.73,0,0,0-23.62,4.47,55.16,55.16,0,0,0-19,12.9,59.63,59.63,0,0,0-12.59,19.87,73.78,73.78,0,0,0,.11,50.88,58.73,58.73,0,0,0,12.79,19.87,55.89,55.89,0,0,0,19,12.69,61.69,61.69,0,0,0,23.31,4.37,62.48,62.48,0,0,0,19.24-2.91,74.76,74.76,0,0,0,17-7.91,6.7,6.7,0,0,1,4.47-.94,5.39,5.39,0,0,1,3.85,2.4,5.66,5.66,0,0,1,1.35,4.89,6,6,0,0,1-2.8,4.05,77.47,77.47,0,0,1-12.28,6.24,91.49,91.49,0,0,1-15,4.69,73.12,73.12,0,0,1-67.21-18.94,69.94,69.94,0,0,1-15.92-23.62,78.86,78.86,0,0,1-5.72-30.58,77.54,77.54,0,0,1,5.62-29.86,71.55,71.55,0,0,1,15.6-23.61,72.69,72.69,0,0,1,51.82-21.23,78.71,78.71,0,0,1,22.88,3.33A73.5,73.5,0,0,1,1237.63,734.62Z" transform="translate(-16.88 -20.31)"/><path d="M1409.5,796.63a85.34,85.34,0,0,1-5.1,30.06,71.13,71.13,0,0,1-14.46,23.73,64.8,64.8,0,0,1-22.16,15.6,73.7,73.7,0,0,1-56,0,64.7,64.7,0,0,1-22.16-15.6,70.8,70.8,0,0,1-14.46-23.73,91.17,91.17,0,0,1,0-60.13,70.86,70.86,0,0,1,14.46-23.72,65,65,0,0,1,22.16-15.6,73.7,73.7,0,0,1,56,0,65.07,65.07,0,0,1,22.16,15.6,71.18,71.18,0,0,1,14.46,23.72A85.44,85.44,0,0,1,1409.5,796.63Zm-13.32,0q0-18.52-7.18-32.56a54.34,54.34,0,0,0-19.87-22q-12.69-7.92-29.34-7.91a53.47,53.47,0,0,0-49.2,29.86q-7.18,14-7.19,32.56t7.19,32.56a53.47,53.47,0,0,0,49.2,29.86q16.65,0,29.34-7.91A54.28,54.28,0,0,0,1389,829.19Q1396.19,815.15,1396.18,796.63Z" transform="translate(-16.88 -20.31)"/><path d="M1457.77,723.81a8,8,0,0,1,3,.62,5.82,5.82,0,0,1,2.6,2.08l57.43,86.14-5.62-.21,57.64-85.93a5.78,5.78,0,0,1,5.62-2.7,5.84,5.84,0,0,1,4.26,1.76,6.07,6.07,0,0,1,1.77,4.48V863.21a6,6,0,0,1-1.87,4.37,6.23,6.23,0,0,1-4.58,1.87,6.45,6.45,0,0,1-4.78-1.87,6,6,0,0,1-1.88-4.37V742.74l3.75.42-52.65,79.69a4.61,4.61,0,0,1-1.87,2,4.41,4.41,0,0,1-2.91.52,4.36,4.36,0,0,1-2.81-.52,5.91,5.91,0,0,1-2.18-2l-52.85-80.53,4-2.7V863.21a6.17,6.17,0,0,1-1.77,4.37,5.88,5.88,0,0,1-4.47,1.87,5.55,5.55,0,0,1-4.37-1.87,6.39,6.39,0,0,1-1.67-4.37V730.05a6.16,6.16,0,0,1,1.77-4.37A5.89,5.89,0,0,1,1457.77,723.81Z" transform="translate(-16.88 -20.31)"/><path d="M1649.2,863a6.82,6.82,0,0,1-2.19,4.58,6.33,6.33,0,0,1-4.47,1.87,6.1,6.1,0,0,1-4.68-1.87,6.41,6.41,0,0,1-1.77-4.58V730.25a6.21,6.21,0,0,1,1.87-4.57,6.47,6.47,0,0,1,4.78-1.87,6.34,6.34,0,0,1,4.48,1.87,6.05,6.05,0,0,1,2,4.57Z" transform="translate(-16.88 -20.31)"/><path d="M1807.12,723.81a5.57,5.57,0,0,1,4.27,1.66,5.85,5.85,0,0,1,1.56,4.16V862.8a6.23,6.23,0,0,1-2,4.88,6.49,6.49,0,0,1-4.48,1.77,8,8,0,0,1-2.7-.52,4.89,4.89,0,0,1-2.29-1.56l-92.8-125,3.54-1.87V863.84a5.41,5.41,0,0,1-1.67,3.95,5.63,5.63,0,0,1-4.16,1.66,5.51,5.51,0,0,1-5.82-5.61V730.05a5.74,5.74,0,0,1,1.87-4.68,6.34,6.34,0,0,1,4.16-1.56,8,8,0,0,1,2.7.52,4.44,4.44,0,0,1,2.29,1.76l91.76,123.6-2.08,3.74V729.63a5.48,5.48,0,0,1,1.77-4.16A5.75,5.75,0,0,1,1807.12,723.81Z" transform="translate(-16.88 -20.31)"/><path d="M1929.89,871.54a77.94,77.94,0,0,1-29.76-5.62,71,71,0,0,1-39.53-39.54,81.58,81.58,0,0,1,0-59.51,71,71,0,0,1,39.53-39.53,77.94,77.94,0,0,1,29.76-5.62,86.46,86.46,0,0,1,21.32,2.61,62,62,0,0,1,18.42,7.79,7.13,7.13,0,0,1,2.18,2.4,5.92,5.92,0,0,1,.73,2.81,6.12,6.12,0,0,1-1.87,4.68,5.72,5.72,0,0,1-4,1.77,6.11,6.11,0,0,1-2-.31,12.85,12.85,0,0,1-1.77-.73,69.37,69.37,0,0,0-15.4-6.24,66.24,66.24,0,0,0-17.68-2.29q-17.91,0-31.84,8.11a58.07,58.07,0,0,0-21.85,22.27q-7.9,14.14-7.91,32t7.91,32a58.14,58.14,0,0,0,21.85,22.27q13.93,8.12,31.84,8.11a68.45,68.45,0,0,0,18.83-2.7,57.81,57.81,0,0,0,16.33-7.29l-1,4.37V805.58l3.12,2.91h-36a6.24,6.24,0,0,1-4.58-1.87,6,6,0,0,1-1.88-4.37,5.8,5.8,0,0,1,1.88-4.58,6.62,6.62,0,0,1,4.58-1.66h39.74a6.05,6.05,0,0,1,6.24,6.24v50.14a6.15,6.15,0,0,1-.84,3.13A7.81,7.81,0,0,1,1974,858a79,79,0,0,1-20.5,9.88A76.68,76.68,0,0,1,1929.89,871.54Z" transform="translate(-16.88 -20.31)"/></svg>